<?xml version="1.0" standalone="no"?>
<!DOCTYPE svg PUBLIC "-//W3C//DTD SVG 20010904//EN"
 "http://www.w3.org/TR/2001/REC-SVG-20010904/DTD/svg10.dtd">
<svg version="1.0" xmlns="http://www.w3.org/2000/svg"
 width="700.000000pt" height="700.000000pt" viewBox="0 0 700.000000 700.000000"
 preserveAspectRatio="xMidYMid meet">
<metadata>
Created by potrace 1.14, written by Peter Selinger 2001-2017
</metadata>
<g transform="translate(0.000000,700.000000) scale(0.100000,-0.100000)"
fill="#000000" stroke="none">
<path d="M3925 6901 c-2 -1 -19 -5 -37 -6 -50 -5 -86 -13 -99 -21 -7 -4 -9 -3
-6 3 4 6 -32 0 -78 -12 -47 -12 -85 -20 -85 -17 0 2 -6 -1 -14 -7 -11 -9 -15
-9 -19 1 -4 11 -6 10 -6 0 -1 -7 -5 -10 -11 -7 -5 3 -10 1 -10 -4 0 -6 -8 -11
-17 -11 -10 -1 -36 -8 -58 -16 -22 -9 -46 -16 -52 -16 -7 -1 -13 -6 -13 -11 0
-5 -7 -7 -15 -3 -8 3 -15 1 -15 -4 0 -6 -5 -10 -11 -10 -17 0 -197 -88 -204
-100 -3 -6 -14 -10 -23 -10 -10 0 -25 -9 -35 -20 -9 -11 -24 -20 -32 -20 -8 0
-15 -4 -15 -9 0 -4 -25 -25 -55 -45 -30 -20 -55 -41 -55 -47 0 -5 -4 -8 -8 -5
-5 3 -28 -13 -53 -36 -105 -96 -128 -118 -124 -118 2 0 -8 -13 -23 -29 -15
-15 -30 -26 -34 -24 -4 2 -5 -4 -1 -13 4 -12 3 -15 -5 -10 -7 4 -12 3 -12 -3
0 -6 -13 -24 -30 -41 -16 -17 -30 -35 -30 -41 0 -5 -7 -12 -15 -15 -8 -4 -15
-13 -15 -21 0 -9 -10 -24 -22 -34 -11 -11 -18 -19 -14 -19 6 0 1 -8 -34 -49
-8 -10 -16 -24 -18 -32 -2 -8 -10 -21 -18 -30 -8 -9 -11 -19 -7 -22 3 -4 1 -7
-5 -7 -7 0 -12 -7 -12 -15 0 -8 -5 -15 -11 -15 -5 0 -8 -4 -4 -9 3 -5 -1 -16
-9 -24 -8 -8 -12 -17 -9 -21 4 -3 0 -6 -7 -6 -7 0 -10 -3 -7 -7 4 -3 2 -12 -4
-20 -6 -7 -8 -13 -4 -13 5 0 0 -9 -10 -20 -10 -11 -15 -20 -10 -20 4 0 0 -11
-9 -25 -9 -14 -14 -25 -12 -25 3 0 -4 -21 -15 -47 -11 -25 -18 -52 -15 -60 3
-7 0 -12 -6 -10 -9 2 -15 -21 -20 -80 -1 -7 -5 -13 -10 -13 -4 0 -8 -13 -8
-28 0 -15 -5 -33 -12 -40 -9 -9 -9 -12 1 -12 9 0 10 -4 4 -12 -6 -7 -9 -21 -8
-30 2 -10 0 -18 -3 -18 -4 0 -8 -18 -9 -41 -1 -22 -8 -48 -15 -57 -7 -9 -8
-13 -2 -9 8 4 11 -2 10 -18 0 -14 -3 -25 -6 -25 -5 0 -4 -298 0 -310 1 -3 2
-9 1 -14 -1 -4 2 -13 7 -20 4 -6 8 -30 7 -53 -1 -25 3 -43 9 -43 6 0 4 -5 -4
-10 -9 -6 -10 -10 -3 -10 6 0 10 -9 8 -20 -2 -11 -1 -20 3 -20 4 0 8 -17 10
-37 1 -20 6 -41 11 -47 4 -6 9 -18 9 -26 1 -16 9 -53 12 -57 2 -2 3 -6 4 -10
1 -5 6 -15 11 -23 9 -15 11 -20 13 -53 1 -11 7 -16 15 -11 9 5 9 4 1 -5 -9 -9
-6 -24 12 -59 13 -26 24 -53 24 -61 0 -8 8 -20 18 -28 10 -9 11 -11 2 -7 -11
5 -10 2 3 -13 10 -11 20 -31 22 -44 3 -13 9 -25 15 -27 5 -2 10 -7 10 -12 0
-12 70 -131 92 -156 10 -11 18 -25 18 -32 0 -6 6 -15 13 -19 22 -14 66 -80 59
-88 -4 -5 -1 -5 6 -1 6 4 12 3 12 -2 0 -6 47 -57 104 -114 117 -116 166 -161
166 -151 0 4 6 -2 14 -12 8 -11 12 -23 10 -27 -3 -5 -1 -8 5 -8 13 0 5 -38
-19 -95 -11 -26 -17 -52 -13 -57 3 -6 1 -8 -5 -4 -6 3 -15 -9 -22 -31 -7 -21
-19 -48 -27 -61 -7 -12 -11 -27 -8 -32 3 -6 1 -10 -4 -10 -6 0 -10 -3 -9 -7 2
-8 -17 -55 -50 -122 -9 -19 -17 -37 -18 -40 -4 -27 -18 -61 -26 -61 -5 0 -6
-4 -3 -10 3 -6 1 -10 -5 -10 -6 0 -10 -6 -9 -12 1 -7 -4 -26 -11 -43 -7 -16
-14 -32 -15 -35 -1 -3 -8 -18 -15 -35 -7 -16 -13 -33 -12 -37 1 -5 -3 -8 -10
-8 -6 0 -9 -3 -5 -6 3 -4 -2 -23 -13 -44 -11 -21 -16 -40 -13 -44 4 -3 1 -6
-5 -6 -7 0 -12 -8 -12 -18 0 -10 -5 -23 -12 -30 -7 -7 -9 -12 -4 -12 4 0 0
-10 -8 -22 -9 -12 -16 -30 -16 -40 0 -10 -5 -18 -11 -18 -5 0 -8 -4 -4 -9 3
-5 1 -12 -5 -16 -5 -3 -10 -15 -10 -26 0 -10 -4 -19 -8 -19 -5 0 -9 -6 -9 -12
0 -12 -9 -34 -61 -148 -9 -19 -17 -37 -17 -40 0 -3 -6 -15 -13 -26 -6 -12 -8
-24 -5 -28 3 -3 1 -6 -6 -6 -8 0 -11 -6 -7 -16 3 -8 2 -13 -3 -10 -8 5 -26
-40 -23 -56 1 -5 -2 -8 -7 -8 -5 0 -12 -10 -16 -23 -4 -12 -8 -24 -9 -27 -2
-3 -9 -18 -16 -35 -7 -16 -13 -33 -12 -37 1 -5 -2 -8 -7 -8 -8 0 -23 -37 -25
-63 -1 -4 -5 -11 -11 -15 -11 -8 -18 -27 -19 -54 0 -9 -3 -15 -7 -12 -7 4 -35
-56 -31 -69 1 -4 -3 -7 -9 -7 -5 0 -7 -5 -4 -10 3 -6 2 -10 -2 -10 -5 0 -20
-29 -33 -65 -13 -36 -28 -65 -33 -65 -4 0 -6 -4 -2 -9 3 -5 1 -12 -5 -16 -6
-4 -8 -11 -5 -16 4 -5 2 -9 -3 -9 -9 0 -25 -37 -23 -52 1 -5 -4 -8 -9 -8 -5 0
-9 -3 -8 -7 1 -5 -5 -21 -12 -38 -7 -16 -14 -32 -15 -35 -1 -3 -9 -21 -17 -40
-9 -19 -16 -39 -16 -44 0 -5 -4 -12 -9 -15 -16 -11 -45 -89 -38 -100 3 -6 1
-10 -6 -9 -6 2 -16 -10 -22 -27 -5 -16 -17 -39 -26 -49 -13 -16 -13 -18 -1
-11 12 7 13 6 3 -7 -7 -8 -9 -18 -5 -22 4 -4 1 -6 -7 -4 -8 2 -15 -7 -17 -22
-3 -13 -10 -28 -17 -32 -6 -4 -8 -8 -3 -8 5 0 1 -10 -10 -22 -10 -12 -13 -18
-7 -14 9 5 11 2 7 -8 -3 -9 -10 -16 -15 -16 -5 0 -8 -3 -7 -7 1 -5 -5 -21 -12
-38 -7 -16 -13 -33 -12 -37 1 -5 -3 -8 -8 -8 -5 0 -9 -3 -8 -8 1 -4 -3 -17
-10 -28 -6 -12 -8 -24 -5 -28 3 -3 1 -6 -5 -6 -7 0 -11 -3 -10 -7 1 -5 -5 -21
-12 -38 -7 -16 -14 -32 -15 -35 -1 -3 -9 -22 -18 -43 -9 -21 -18 -48 -19 -60
-2 -12 -7 -28 -11 -35 -5 -7 -3 -12 4 -12 9 0 9 -3 0 -14 -8 -10 -9 -16 -1
-21 6 -3 7 -12 3 -18 -10 -16 -13 -37 -5 -37 4 0 7 -15 8 -33 1 -29 8 -96 21
-182 2 -16 5 -40 6 -52 0 -13 4 -23 8 -23 4 0 6 -12 4 -27 -1 -15 2 -39 7 -53
5 -14 11 -32 13 -42 7 -32 58 -97 86 -110 16 -7 29 -16 29 -19 0 -7 5 -7 83
-9 38 -2 65 3 82 14 13 9 29 16 35 16 5 0 21 10 36 22 14 13 28 22 30 20 3 -1
15 8 27 20 29 30 83 68 97 68 5 0 10 5 10 10 0 6 4 10 10 10 11 0 41 23 81 62
16 16 33 28 39 28 6 0 9 3 7 8 -7 10 19 32 29 24 4 -4 4 -2 1 5 -4 6 5 25 19
42 14 17 22 31 17 31 -4 0 0 5 10 11 9 5 17 16 17 24 0 7 12 28 27 47 15 18
20 27 10 19 -20 -16 -23 -9 -4 11 17 20 48 80 37 73 -5 -3 -2 9 8 27 9 18 20
35 25 36 4 2 5 8 1 13 -3 5 2 19 10 31 9 12 16 30 16 40 0 10 4 18 8 18 5 0 9
6 9 13 0 6 12 38 27 69 14 31 26 62 26 67 0 6 4 11 10 11 5 0 9 3 8 8 -1 4 4
23 11 42 8 19 13 38 12 43 0 4 3 7 8 7 5 0 12 14 16 30 4 17 11 30 16 30 6 0
8 4 4 9 -3 5 4 25 16 45 11 19 18 40 14 46 -3 5 -2 10 3 10 10 0 36 58 33 73
0 4 4 7 9 7 6 0 10 4 10 9 0 8 10 35 26 71 1 3 5 15 9 28 4 12 12 22 18 22 6
0 8 3 4 6 -3 4 3 24 14 45 11 22 16 39 12 39 -5 0 -3 4 4 8 6 4 13 14 15 22 2
8 13 34 25 58 13 25 21 48 18 52 -3 4 2 11 11 14 8 3 13 10 9 15 -3 5 -1 12 5
16 5 3 10 15 10 26 0 12 4 17 11 14 6 -4 9 -1 8 6 -3 15 -2 16 97 237 13 29
24 57 24 62 0 6 5 10 12 10 6 0 9 3 6 6 -4 3 0 17 7 31 8 15 12 30 10 34 -3 4
2 9 10 13 8 3 12 12 9 21 -4 8 1 17 10 21 9 3 13 10 11 15 -3 5 2 20 11 34 9
14 13 25 10 25 -4 0 1 11 10 25 9 14 12 25 8 25 -5 0 -4 4 2 8 14 10 54 93 40
85 -13 -8 14 28 29 39 6 4 6 8 1 8 -5 0 -3 7 4 15 7 8 9 15 6 15 -4 0 -1 10 6
23 7 12 11 26 10 30 -1 4 5 10 13 13 8 3 12 10 9 15 -2 5 1 19 8 31 7 13 11
26 10 31 -1 4 3 7 8 7 6 0 10 6 10 13 0 7 9 32 20 55 11 22 20 46 20 52 0 5 4
10 8 10 5 0 9 6 9 13 0 6 8 30 18 52 10 22 17 43 17 48 -1 4 3 7 8 7 5 0 9 3
8 8 -1 4 5 21 12 37 7 17 14 32 15 35 1 3 8 19 15 35 7 17 14 32 15 35 0 3 8
21 17 40 43 96 58 131 58 139 0 4 11 19 24 33 22 21 32 24 98 21 40 -1 75 -3
78 -4 12 -5 300 -3 300 2 0 3 20 5 45 5 25 -1 45 2 45 6 0 3 7 5 17 4 9 -2 40
3 69 10 29 6 55 9 58 6 3 -3 6 -1 6 5 0 6 10 9 23 9 12 -1 34 4 49 11 15 7 39
14 53 15 14 1 25 5 25 8 0 3 10 7 22 7 13 1 24 7 26 12 2 5 10 7 18 4 8 -3 14
0 14 6 0 6 7 8 15 5 8 -4 15 -1 15 6 0 6 4 9 9 5 5 -3 16 1 24 9 8 8 17 13 20
9 3 -3 20 5 36 17 17 12 31 18 31 15 0 -4 11 0 25 9 14 9 25 14 25 11 0 -3 10
3 22 15 12 11 30 20 40 20 10 0 18 4 18 9 0 5 14 14 30 21 17 7 30 16 30 20 0
4 14 13 30 20 17 7 30 16 30 21 0 5 6 8 13 6 6 -1 11 4 10 11 -2 6 4 12 12 12
9 0 32 16 52 35 19 19 40 33 47 32 6 -1 10 4 8 11 -1 6 2 12 6 12 12 0 137
124 187 185 22 26 46 54 53 61 6 7 12 17 12 23 0 6 4 11 9 11 5 0 13 9 16 20
4 11 11 18 16 15 5 -3 6 2 2 11 -4 12 -3 15 5 10 7 -4 12 -1 12 8 0 9 5 16 11
16 5 0 7 4 4 10 -3 5 -2 10 3 10 5 0 15 14 22 30 7 17 16 30 21 30 5 0 9 7 9
16 0 8 7 22 15 31 8 8 13 19 9 24 -3 5 2 12 10 15 9 3 14 10 11 14 -3 5 0 14
7 22 7 7 14 20 16 28 2 8 8 18 14 21 5 3 9 9 8 13 -1 4 6 26 16 49 10 23 18
44 18 47 1 3 5 11 9 18 5 6 5 12 1 12 -3 0 1 12 11 26 9 15 12 23 6 20 -7 -5
-9 -1 -5 8 3 9 11 16 17 16 6 0 8 3 4 6 -3 3 -2 17 4 31 10 27 21 79 23 105 0
9 4 15 8 12 4 -2 6 4 6 13 0 10 3 34 7 53 4 19 8 49 10 65 2 17 4 30 5 30 3 0
10 71 11 115 1 25 7 51 13 59 7 10 7 13 0 8 -7 -4 -11 6 -11 28 0 22 4 32 11
28 8 -5 7 -2 0 8 -6 8 -11 23 -11 34 0 11 5 26 11 34 8 10 8 13 0 8 -7 -4 -12
10 -13 41 -6 105 -8 129 -13 138 -3 5 -5 21 -4 37 1 15 -2 27 -7 27 -4 0 -6 4
-2 9 3 5 1 12 -4 15 -5 4 -8 18 -5 31 2 14 0 25 -5 25 -4 0 -8 8 -8 18 1 25
-14 85 -25 99 -5 7 -7 17 -4 22 4 5 2 12 -4 16 -6 4 -8 11 -5 16 4 5 1 9 -4 9
-6 0 -10 3 -9 8 2 8 -9 45 -27 87 -7 17 -21 49 -31 72 -9 23 -21 40 -25 37 -4
-2 -6 5 -4 16 2 11 0 20 -4 20 -7 0 -21 33 -20 48 0 1 -6 9 -13 17 -29 33 -38
45 -37 51 1 3 -3 13 -9 23 -7 9 -27 38 -44 66 -18 27 -40 57 -48 66 -8 9 -24
28 -34 43 -30 42 -202 226 -212 226 -2 0 -17 11 -32 24 -60 54 -87 76 -93 76
-4 0 -22 13 -40 30 -19 16 -39 30 -45 30 -6 0 -17 7 -24 15 -7 8 -31 24 -54
35 -22 10 -52 26 -66 34 -40 24 -175 86 -187 86 -6 0 -14 6 -16 13 -4 9 -6 9
-6 0 -1 -9 -8 -8 -28 2 -36 18 -62 27 -93 32 -13 2 -28 10 -32 16 -4 7 -8 9
-8 6 0 -4 -19 -2 -42 3 -82 19 -93 21 -120 22 -16 0 -28 3 -28 7 0 3 -19 6
-42 8 -23 1 -48 7 -54 12 -8 7 -14 6 -19 -1 -3 -6 -12 -7 -18 -3 -11 7 -325
11 -332 4z"/>
</g>
</svg>
